<svg width="95" height="48" viewBox="0 0 95 48" fill="none" xmlns="http://www.w3.org/2000/svg">
<circle cx="21.9999" cy="22.0803" r="20" fill="#FF0000"/>
<path d="M27.385 10.3528C28.5603 9.18499 30.4628 9.18803 31.6344 10.3596L33.7557 12.4809C34.9273 13.6525 34.9243 15.5489 33.749 16.7168L16.7243 33.6331C15.549 34.8009 13.6465 34.7979 12.4749 33.6263L10.3536 31.505C9.18204 30.3334 9.18506 28.437 10.3604 27.2692L27.385 10.3528Z" fill="#FBFCD4"/>
<path d="M27.3976 33.635C28.5729 34.8028 30.4754 34.7998 31.647 33.6282L33.7683 31.5069C34.9398 30.3353 34.9368 28.4388 33.7615 27.271L16.7369 10.3546C15.5617 9.18678 13.6591 9.18982 12.4876 10.3614L10.3663 12.4827C9.19468 13.6543 9.19769 15.5507 10.373 16.7186L27.3976 33.635Z" fill="#FBFCD4"/>
</svg>
